<?xml version="1.0" encoding="iso-8859-1"?>
<!-- Generator: Adobe Illustrator 19.0.0, SVG Export Plug-In . SVG Version: 6.00 Build 0)  -->
<svg version="1.1" id="Capa_1" xmlns="http://www.w3.org/2000/svg" xmlns:xlink="http://www.w3.org/1999/xlink" x="0px" y="0px"
	 viewBox="0 0 384 384" style="enable-background:new 0 0 384 384;" xml:space="preserve">
<g>
	<g>
		<path d="M239.584,0h-95.168c-8.832,0-16,7.168-16,16v95.232c0,4.304,1.736,8.432,4.816,11.44l47.584,46.528
			c3.112,3.04,7.152,4.56,11.184,4.56c4.032,0,8.08-1.52,11.184-4.56l47.584-46.528c3.08-3.008,4.816-7.136,4.816-11.44V16
			C255.584,7.168,248.416,0,239.584,0z M223.584,104.504L192,135.384l-31.584-30.88V32h63.168V104.504z"/>
	</g>
</g>
<g>
	<g>
		<path d="M250.768,261.336L203.184,214.8c-6.216-6.088-16.152-6.088-22.368,0l-47.584,46.536c-3.08,3.008-4.816,7.136-4.816,11.44
			V368c0,8.832,7.168,16,16,16h95.168c8.832,0,16-7.168,16-16v-95.224C255.584,268.472,253.848,264.344,250.768,261.336z
			 M160.416,352v-72.496L192,248.616l31.584,30.888V352H160.416z"/>
	</g>
</g>
<g>
	<g>
		<path d="M169.2,180.808l-46.536-47.584c-3.008-3.08-7.136-4.816-11.44-4.816H16c-8.832,0-16,7.168-16,16v95.168
			c0,8.84,7.168,16,16,16h95.224c4.304,0,8.432-1.736,11.44-4.816l46.536-47.576C175.28,196.968,175.28,187.024,169.2,180.808z
			 M104.496,223.576H32v-63.16h72.496L135.384,192L104.496,223.576z"/>
	</g>
</g>
<g>
	<g>
		<path d="M368,128.416h-95.224c-4.304,0-8.432,1.736-11.44,4.816L214.8,180.816c-6.08,6.216-6.08,16.16,0,22.376l46.536,47.576
			c3.008,3.08,7.136,4.816,11.44,4.816H368c8.832,0,16-7.168,16-16v-95.168C384,135.576,376.832,128.416,368,128.416z M352,223.576
			h-72.496L248.616,192l30.888-31.584H352V223.576z"/>
	</g>
</g>
<g>
</g>
<g>
</g>
<g>
</g>
<g>
</g>
<g>
</g>
<g>
</g>
<g>
</g>
<g>
</g>
<g>
</g>
<g>
</g>
<g>
</g>
<g>
</g>
<g>
</g>
<g>
</g>
<g>
</g>
</svg>
